<?xml version="1.0" encoding="UTF-8" standalone="no"?>
<!DOCTYPE svg PUBLIC "-//W3C//DTD SVG 1.1//EN" "http://www.w3.org/Graphics/SVG/1.1/DTD/svg11.dtd">
<svg width="100%" height="100%" viewBox="0 0 24897 5311" version="1.1" xmlns="http://www.w3.org/2000/svg" xmlns:xlink="http://www.w3.org/1999/xlink" xml:space="preserve" xmlns:serif="http://www.serif.com/" style="fill-rule:evenodd;clip-rule:evenodd;stroke-linejoin:round;stroke-miterlimit:2;">
    <g transform="matrix(1,0,0,1,-105365,-41280.3)">
        <g transform="matrix(1,0,0,1,-262896,-103110)">
            <g transform="matrix(1.18317,0,0,1.18317,369348,132709)">
                <g transform="matrix(3752.78,0,0,3752.78,4673.28,13442.7)">
                    <path d="M0.115,-0L0.005,-0L0.312,-0.708L0.402,-0.708L0.706,-0L0.594,-0L0.522,-0.174L0.186,-0.174L0.115,-0ZM0.221,-0.261L0.486,-0.261L0.354,-0.593L0.221,-0.261Z" style="fill:rgb(44,49,54);fill-rule:nonzero;"/>
                </g>
                <g transform="matrix(3752.78,0,0,3752.78,7228.93,13442.7)">
                    <path d="M0.413,-0.354C0.403,-0.369 0.388,-0.382 0.368,-0.393C0.348,-0.403 0.327,-0.408 0.304,-0.408C0.279,-0.408 0.258,-0.403 0.239,-0.394C0.22,-0.385 0.203,-0.372 0.19,-0.357C0.177,-0.341 0.167,-0.323 0.16,-0.302C0.153,-0.281 0.149,-0.26 0.149,-0.237C0.149,-0.214 0.153,-0.193 0.16,-0.172C0.167,-0.151 0.177,-0.133 0.19,-0.118C0.203,-0.102 0.22,-0.089 0.239,-0.08C0.258,-0.071 0.28,-0.066 0.305,-0.066C0.329,-0.066 0.351,-0.071 0.371,-0.08C0.39,-0.089 0.406,-0.102 0.419,-0.118L0.482,-0.061C0.462,-0.038 0.437,-0.02 0.407,-0.007C0.377,0.007 0.343,0.013 0.305,0.013C0.268,0.013 0.235,0.007 0.204,-0.005C0.173,-0.017 0.146,-0.034 0.123,-0.056C0.1,-0.077 0.083,-0.103 0.07,-0.134C0.057,-0.165 0.05,-0.199 0.05,-0.237C0.05,-0.274 0.056,-0.308 0.069,-0.339C0.082,-0.37 0.099,-0.396 0.122,-0.418C0.145,-0.44 0.171,-0.457 0.203,-0.469C0.234,-0.481 0.267,-0.487 0.303,-0.487C0.336,-0.487 0.37,-0.48 0.403,-0.467C0.436,-0.454 0.462,-0.434 0.481,-0.409L0.413,-0.354Z" style="fill:rgb(44,49,54);fill-rule:nonzero;"/>
                </g>
                <g transform="matrix(3752.78,0,0,3752.78,8970.22,13442.7)">
                    <path d="M0.173,-0.396C0.185,-0.421 0.204,-0.443 0.231,-0.461C0.257,-0.478 0.288,-0.487 0.324,-0.487C0.356,-0.487 0.385,-0.48 0.411,-0.465C0.436,-0.45 0.456,-0.426 0.471,-0.392C0.487,-0.423 0.509,-0.446 0.538,-0.463C0.567,-0.479 0.598,-0.487 0.632,-0.487C0.663,-0.487 0.689,-0.482 0.711,-0.472C0.733,-0.461 0.751,-0.447 0.766,-0.43C0.781,-0.413 0.792,-0.392 0.799,-0.369C0.806,-0.346 0.809,-0.321 0.809,-0.294L0.809,-0L0.715,-0L0.715,-0.263C0.715,-0.282 0.713,-0.301 0.71,-0.318C0.707,-0.335 0.701,-0.351 0.693,-0.364C0.685,-0.377 0.674,-0.388 0.661,-0.396C0.648,-0.404 0.631,-0.408 0.61,-0.408C0.589,-0.408 0.57,-0.404 0.555,-0.395C0.54,-0.386 0.527,-0.374 0.518,-0.36C0.508,-0.345 0.501,-0.329 0.497,-0.311C0.492,-0.293 0.49,-0.275 0.49,-0.256L0.49,-0L0.396,-0L0.396,-0.282C0.396,-0.301 0.394,-0.318 0.391,-0.333C0.388,-0.348 0.382,-0.362 0.374,-0.373C0.366,-0.384 0.356,-0.392 0.343,-0.399C0.33,-0.405 0.315,-0.408 0.296,-0.408C0.261,-0.408 0.233,-0.394 0.21,-0.366C0.187,-0.337 0.175,-0.299 0.175,-0.252L0.175,-0L0.081,-0L0.081,-0.372C0.081,-0.385 0.081,-0.401 0.08,-0.421C0.079,-0.441 0.078,-0.459 0.077,-0.474L0.166,-0.474C0.167,-0.462 0.168,-0.448 0.169,-0.434C0.17,-0.419 0.17,-0.406 0.17,-0.396L0.173,-0.396Z" style="fill:rgb(44,49,54);fill-rule:nonzero;"/>
                </g>
                <g transform="matrix(3752.78,0,0,3752.78,12186.3,13442.7)">
                    <path d="M0.428,-0.279C0.427,-0.298 0.424,-0.315 0.419,-0.332C0.413,-0.348 0.405,-0.362 0.394,-0.374C0.383,-0.386 0.369,-0.396 0.353,-0.403C0.336,-0.41 0.317,-0.413 0.295,-0.413C0.275,-0.413 0.256,-0.41 0.239,-0.403C0.221,-0.396 0.206,-0.386 0.193,-0.374C0.18,-0.362 0.169,-0.348 0.161,-0.332C0.152,-0.315 0.147,-0.298 0.146,-0.279L0.428,-0.279ZM0.523,-0.241L0.523,-0.225C0.523,-0.22 0.523,-0.214 0.522,-0.209L0.146,-0.209C0.147,-0.189 0.151,-0.17 0.16,-0.153C0.168,-0.135 0.179,-0.119 0.193,-0.107C0.207,-0.094 0.223,-0.083 0.242,-0.076C0.26,-0.069 0.279,-0.065 0.3,-0.065C0.332,-0.065 0.36,-0.072 0.383,-0.086C0.406,-0.1 0.425,-0.117 0.438,-0.137L0.504,-0.084C0.479,-0.051 0.449,-0.026 0.415,-0.011C0.38,0.005 0.342,0.013 0.3,0.013C0.264,0.013 0.231,0.007 0.2,-0.005C0.169,-0.017 0.143,-0.034 0.121,-0.056C0.099,-0.077 0.082,-0.103 0.069,-0.134C0.056,-0.165 0.05,-0.199 0.05,-0.236C0.05,-0.273 0.056,-0.307 0.069,-0.338C0.081,-0.369 0.098,-0.395 0.12,-0.417C0.142,-0.439 0.168,-0.456 0.198,-0.469C0.228,-0.481 0.26,-0.487 0.295,-0.487C0.33,-0.487 0.361,-0.481 0.39,-0.47C0.418,-0.459 0.442,-0.442 0.462,-0.421C0.481,-0.4 0.496,-0.374 0.507,-0.344C0.518,-0.313 0.523,-0.279 0.523,-0.241Z" style="fill:rgb(44,49,54);fill-rule:nonzero;"/>
                </g>
                <g transform="matrix(3752.78,0,0,3752.78,14224.1,13442.7)">
                    <path d="M0.337,-0.354C0.326,-0.371 0.311,-0.386 0.292,-0.397C0.273,-0.408 0.251,-0.413 0.227,-0.413C0.216,-0.413 0.206,-0.412 0.195,-0.41C0.184,-0.407 0.175,-0.404 0.167,-0.399C0.158,-0.394 0.152,-0.387 0.147,-0.38C0.141,-0.372 0.139,-0.362 0.139,-0.351C0.139,-0.331 0.148,-0.316 0.166,-0.307C0.184,-0.297 0.211,-0.288 0.247,-0.28C0.27,-0.275 0.291,-0.268 0.31,-0.261C0.329,-0.254 0.346,-0.245 0.361,-0.234C0.375,-0.223 0.386,-0.209 0.394,-0.194C0.402,-0.179 0.406,-0.161 0.406,-0.14C0.406,-0.112 0.401,-0.088 0.39,-0.069C0.379,-0.05 0.365,-0.034 0.348,-0.022C0.33,-0.009 0.31,-0 0.287,0.005C0.264,0.01 0.241,0.013 0.217,0.013C0.181,0.013 0.146,0.006 0.112,-0.008C0.077,-0.022 0.049,-0.043 0.026,-0.072L0.093,-0.129C0.106,-0.11 0.123,-0.095 0.146,-0.082C0.168,-0.069 0.192,-0.063 0.219,-0.063C0.231,-0.063 0.243,-0.064 0.254,-0.067C0.265,-0.069 0.275,-0.073 0.284,-0.078C0.293,-0.083 0.3,-0.09 0.305,-0.099C0.31,-0.108 0.313,-0.119 0.313,-0.132C0.313,-0.154 0.303,-0.17 0.282,-0.181C0.261,-0.192 0.23,-0.202 0.189,-0.211C0.173,-0.215 0.157,-0.22 0.141,-0.226C0.124,-0.231 0.109,-0.239 0.096,-0.249C0.083,-0.259 0.072,-0.272 0.064,-0.287C0.055,-0.302 0.051,-0.32 0.051,-0.342C0.051,-0.367 0.056,-0.389 0.067,-0.408C0.077,-0.426 0.09,-0.441 0.107,-0.453C0.124,-0.464 0.143,-0.473 0.164,-0.479C0.185,-0.484 0.207,-0.487 0.23,-0.487C0.264,-0.487 0.297,-0.48 0.329,-0.467C0.36,-0.454 0.385,-0.434 0.402,-0.409L0.337,-0.354Z" style="fill:rgb(44,49,54);fill-rule:nonzero;"/>
                </g>
                <g transform="matrix(3752.78,0,0,3752.78,15777.8,13442.7)">
                    <path d="M0.561,-0.238C0.561,-0.201 0.555,-0.168 0.542,-0.137C0.529,-0.106 0.511,-0.08 0.488,-0.058C0.464,-0.035 0.437,-0.018 0.406,-0.006C0.375,0.007 0.341,0.013 0.305,0.013C0.269,0.013 0.235,0.007 0.204,-0.006C0.173,-0.018 0.146,-0.035 0.123,-0.058C0.1,-0.08 0.083,-0.106 0.07,-0.137C0.057,-0.168 0.05,-0.201 0.05,-0.238C0.05,-0.275 0.057,-0.308 0.07,-0.339C0.083,-0.369 0.1,-0.395 0.123,-0.417C0.146,-0.439 0.173,-0.456 0.204,-0.469C0.235,-0.481 0.269,-0.487 0.305,-0.487C0.341,-0.487 0.375,-0.481 0.406,-0.469C0.437,-0.456 0.464,-0.439 0.488,-0.417C0.511,-0.395 0.529,-0.369 0.542,-0.339C0.555,-0.308 0.561,-0.275 0.561,-0.238ZM0.463,-0.238C0.463,-0.261 0.46,-0.282 0.453,-0.303C0.446,-0.324 0.435,-0.342 0.422,-0.358C0.409,-0.373 0.392,-0.386 0.373,-0.395C0.353,-0.404 0.33,-0.409 0.305,-0.409C0.28,-0.409 0.257,-0.404 0.238,-0.395C0.218,-0.386 0.201,-0.373 0.188,-0.358C0.175,-0.342 0.165,-0.324 0.158,-0.303C0.151,-0.282 0.147,-0.261 0.147,-0.238C0.147,-0.215 0.151,-0.194 0.158,-0.173C0.165,-0.152 0.175,-0.134 0.188,-0.118C0.201,-0.102 0.218,-0.089 0.238,-0.08C0.257,-0.071 0.28,-0.066 0.305,-0.066C0.33,-0.066 0.353,-0.071 0.373,-0.08C0.392,-0.089 0.409,-0.102 0.422,-0.118C0.435,-0.134 0.446,-0.152 0.453,-0.173C0.46,-0.194 0.463,-0.215 0.463,-0.238Z" style="fill:rgb(44,49,54);fill-rule:nonzero;"/>
                </g>
                <g transform="matrix(3752.78,0,0,3752.78,17954.4,13442.7)">
                    <path d="M0.304,-0.397L0.194,-0.397L0.194,-0L0.1,-0L0.1,-0.397L0.006,-0.397L0.006,-0.474L0.1,-0.474L0.1,-0.573C0.1,-0.601 0.103,-0.627 0.11,-0.651C0.116,-0.674 0.126,-0.695 0.141,-0.712C0.155,-0.729 0.173,-0.743 0.196,-0.753C0.218,-0.763 0.245,-0.768 0.277,-0.768C0.3,-0.768 0.319,-0.766 0.336,-0.761L0.325,-0.68C0.318,-0.682 0.31,-0.684 0.303,-0.685C0.296,-0.686 0.287,-0.687 0.278,-0.687C0.26,-0.687 0.246,-0.684 0.235,-0.678C0.224,-0.671 0.215,-0.663 0.209,-0.652C0.203,-0.641 0.199,-0.629 0.197,-0.616C0.195,-0.602 0.194,-0.588 0.194,-0.573L0.194,-0.474L0.304,-0.474L0.304,-0.397Z" style="fill:rgb(44,49,54);fill-rule:nonzero;"/>
                </g>
                <g transform="matrix(3752.78,0,0,3752.78,18948.9,13442.7)">
                    <path d="M0.313,-0.397L0.187,-0.397L0.187,-0.15C0.187,-0.121 0.192,-0.101 0.203,-0.089C0.214,-0.076 0.231,-0.07 0.254,-0.07C0.263,-0.07 0.272,-0.071 0.282,-0.073C0.292,-0.075 0.301,-0.078 0.309,-0.082L0.312,-0.005C0.301,-0.001 0.288,0.002 0.275,0.005C0.261,0.007 0.247,0.008 0.232,0.008C0.187,0.008 0.153,-0.004 0.13,-0.029C0.106,-0.054 0.094,-0.091 0.094,-0.14L0.094,-0.397L0.003,-0.397L0.003,-0.474L0.094,-0.474L0.094,-0.61L0.187,-0.61L0.187,-0.474L0.313,-0.474L0.313,-0.397Z" style="fill:rgb(44,49,54);fill-rule:nonzero;"/>
                </g>
            </g>
        </g>
        <g transform="matrix(1,0,0,1,-262896,-103110)">
            <g transform="matrix(0.960621,0,0,0.960621,14606.5,1335.12)">
                <g transform="matrix(10.7975,0,0,10.7975,368152,148920)">
                    <path d="M499.59,364.1L441.72,337.87L279.86,411.24C272.3,414.67 264.27,416.41 256,416.41C247.73,416.41 239.71,414.67 232.14,411.24L70.29,337.87L12.41,364.1C-4.14,371.6 -4.14,396.6 12.41,404.1L245.35,509.69C252.15,512.77 259.84,512.77 266.64,509.69L499.59,404.1C516.14,396.6 516.14,371.6 499.59,364.1Z" style="fill:rgb(44,49,54);"/>
                </g>
                <g transform="matrix(10.7975,0,0,10.7975,368152,148920)">
                    <path d="M499.59,236.3L441.5,209.97L279.86,283.24C272.3,286.67 264.27,288.41 256,288.41C247.73,288.41 239.71,286.67 232.14,283.24L70.51,209.97L12.41,236.3C-4.14,243.8 -4.14,268.8 12.41,276.3L245.35,381.89C252.15,384.97 259.84,384.97 266.64,381.89L499.59,276.3C516.14,268.8 516.14,243.8 499.59,236.3Z" style="fill:rgb(13,111,253);"/>
                </g>
                <g transform="matrix(10.7975,0,0,10.7975,368152,148920)">
                    <path d="M12.41,148.02L245.35,253.69C252.15,256.78 259.84,256.78 266.64,253.69L499.58,148.02C516.13,140.51 516.13,115.5 499.58,107.99L266.65,2.31C259.893,-0.778 252.117,-0.778 245.36,2.31L12.41,107.98C-4.14,115.49 -4.14,140.51 12.41,148.02Z" style="fill:rgb(220,53,69);"/>
                </g>
            </g>
        </g>
    </g>
</svg>
