<?xml version="1.0" encoding="UTF-8" standalone="no"?>
<!DOCTYPE svg PUBLIC "-//W3C//DTD SVG 1.1//EN" "http://www.w3.org/Graphics/SVG/1.1/DTD/svg11.dtd">
<svg width="100%" height="100%" viewBox="0 0 5311 5311" version="1.1" xmlns="http://www.w3.org/2000/svg" xmlns:xlink="http://www.w3.org/1999/xlink" xml:space="preserve" xmlns:serif="http://www.serif.com/" style="fill-rule:evenodd;clip-rule:evenodd;stroke-linejoin:round;stroke-miterlimit:2;">
    <g transform="matrix(1,0,0,1,-94083.1,-41280.3)">
        <g id="Artboard3" transform="matrix(1,0,0,1,-262896,-103110)">
            <rect x="262896" y="103110" width="141095" height="98453.3" style="fill:none;"/>
            <g transform="matrix(0.960621,0,0,0.960621,3324.98,1335.12)">
                <g transform="matrix(10.7975,0,0,10.7975,368152,148920)">
                    <path d="M499.59,364.1L441.72,337.87L279.86,411.24C272.3,414.67 264.27,416.41 256,416.41C247.73,416.41 239.71,414.67 232.14,411.24L70.29,337.87L12.41,364.1C-4.14,371.6 -4.14,396.6 12.41,404.1L245.35,509.69C252.15,512.77 259.84,512.77 266.64,509.69L499.59,404.1C516.14,396.6 516.14,371.6 499.59,364.1Z" style="fill:rgb(97,99,101);"/>
                </g>
                <g transform="matrix(10.7975,0,0,10.7975,368152,148920)">
                    <path d="M499.59,236.3L441.5,209.97L279.86,283.24C272.3,286.67 264.27,288.41 256,288.41C247.73,288.41 239.71,286.67 232.14,283.24L70.51,209.97L12.41,236.3C-4.14,243.8 -4.14,268.8 12.41,276.3L245.35,381.89C252.15,384.97 259.84,384.97 266.64,381.89L499.59,276.3C516.14,268.8 516.14,243.8 499.59,236.3Z" style="fill:rgb(196,196,196);"/>
                </g>
                <g transform="matrix(10.7975,0,0,10.7975,368152,148920)">
                    <path d="M12.41,148.02L245.35,253.69C252.15,256.78 259.84,256.78 266.64,253.69L499.58,148.02C516.13,140.51 516.13,115.5 499.58,107.99L266.65,2.31C259.893,-0.778 252.117,-0.778 245.36,2.31L12.41,107.98C-4.14,115.49 -4.14,140.51 12.41,148.02Z" style="fill:rgb(148,148,148);"/>
                </g>
            </g>
        </g>
    </g>
</svg>
